<?xml version="1.0" ?><svg viewBox="0 0 32 32" xmlns="http://www.w3.org/2000/svg"><defs><style>.cls-1{fill:#0e6ae0;}.cls-2{fill:#0593ff;}</style></defs><title/><g id="Pin"><path class="cls-1" d="M5,26a1,1,0,0,1-1-1V18a1,1,0,0,1,2,0v7A1,1,0,0,1,5,26Z"/><path class="cls-1" d="M6.5,26.5a1,1,0,0,1-.71-.29,1,1,0,0,1,0-1.42l8-8a1,1,0,0,1,1.42,1.42l-8,8A1,1,0,0,1,6.5,26.5Z"/><path class="cls-1" d="M14.59,15.59a1,1,0,0,1-.71-.3L5.71,7.12A1,1,0,0,1,7.12,5.71l8.17,8.17a1,1,0,0,1,0,1.41A1,1,0,0,1,14.59,15.59Z"/><path class="cls-1" d="M14,6H7A1,1,0,0,1,7,4h7a1,1,0,0,1,0,2Z"/><path class="cls-1" d="M25,6H18a1,1,0,0,1,0-2h7a1,1,0,0,1,0,2Z"/><path class="cls-1" d="M25,28H18a1,1,0,0,1,0-2h7a1,1,0,0,1,0,2Z"/><path class="cls-1" d="M27,15a1,1,0,0,1-1-1V7a1,1,0,0,1,2,0v7A1,1,0,0,1,27,15Z"/><path class="cls-1" d="M27,26a1,1,0,0,1-1-1V18a1,1,0,0,1,2,0v7A1,1,0,0,1,27,26Z"/><circle class="cls-2" cx="16" cy="5" r="3"/><circle class="cls-2" cx="16" cy="16" r="3"/><circle class="cls-2" cx="16" cy="27" r="3"/><circle class="cls-2" cx="5" cy="5" r="3"/><circle class="cls-2" cx="5" cy="16" r="3"/><circle class="cls-2" cx="5" cy="27" r="3"/><circle class="cls-2" cx="27" cy="5" r="3"/><circle class="cls-2" cx="27" cy="16" r="3"/><circle class="cls-2" cx="27" cy="27" r="3"/></g></svg>